<?xml version="1.0" encoding="utf-8"?>
<!-- Generator: Adobe Illustrator 26.2.1, SVG Export Plug-In . SVG Version: 6.00 Build 0)  -->
<svg version="1.1" xmlns="http://www.w3.org/2000/svg" xmlns:xlink="http://www.w3.org/1999/xlink" x="0px" y="0px"
	 viewBox="0 0 16.9 16.9" style="enable-background:new 0 0 16.9 16.9;" xml:space="preserve">
<style type="text/css">
	.st0{display:none;}
	.st1{display:inline;}
	.st2{fill:#D2D2D2;}
	.st3{display:inline;fill:#D2D2D2;stroke:#D2D2D2;stroke-width:0.2;stroke-miterlimit:10;}
	.st4{display:inline;fill:#D2D2D2;stroke:#D2D2D2;stroke-width:0.15;stroke-miterlimit:10;}
	.st5{fill:#D2D2D2;stroke:#D2D2D2;stroke-width:0.15;stroke-miterlimit:10;}
	.st6{display:none;fill:#D2D2D2;stroke:#D2D2D2;stroke-width:0.15;stroke-miterlimit:10;}
</style>
<g id="Ebene_1" xmlns:cc="http://creativecommons.org/ns#" xmlns:dc="http://purl.org/dc/elements/1.1/" xmlns:inkscape="http://www.inkscape.org/namespaces/inkscape" xmlns:rdf="http://www.w3.org/1999/02/22-rdf-syntax-ns#" xmlns:sodipodi="http://sodipodi.sourceforge.net/DTD/sodipodi-0.dtd" xmlns:svg="http://www.w3.org/2000/svg" class="st0">
	<g transform="translate(0,6.3500001)" class="st1">
		<path class="st2" d="M5.8-4.2C5.7-4.2,5.6-4.1,5.6-4v4.5c0,0.2,0.2,0.3,0.4,0.2l1.6-1.3h3.6c0.1,0,0.2-0.1,0.2-0.2V-4
			c0-0.1-0.1-0.2-0.2-0.2H5.8C5.9-4.2,5.9-4.2,5.8-4.2z M6.1-3.7H11V-1H7.5C7.4-1,7.4-1,7.3-1L6.1,0V-3.7z M3.9,0.9
			C3,0.9,2.3,1.7,2.3,2.6c0,0.9,0.7,1.7,1.7,1.7c0.9,0,1.7-0.7,1.7-1.7C5.6,1.7,4.8,0.9,3.9,0.9z M13.1,0.9c-0.9,0-1.7,0.7-1.7,1.7
			c0,0.9,0.7,1.7,1.7,1.7c0.9,0,1.7-0.7,1.7-1.7C14.8,1.7,14.1,0.9,13.1,0.9z M3.9,1.4c0.7,0,1.2,0.5,1.2,1.2c0,0.7-0.5,1.2-1.2,1.2
			c-0.7,0-1.2-0.5-1.2-1.2C2.7,1.9,3.3,1.4,3.9,1.4z M13.1,1.4c0.7,0,1.2,0.5,1.2,1.2c0,0.7-0.5,1.2-1.2,1.2S12,3.2,12,2.6
			C12,1.9,12.5,1.4,13.1,1.4z M3.9,4.5c-1.3,0-2.3,1-2.3,2.3v1.8c0,0.3,0.5,0.3,0.5,0V6.8c0-1,0.8-1.8,1.8-1.8c1,0,1.8,0.8,1.8,1.8
			v1.8c0,0.3,0.5,0.3,0.5,0V6.8C6.2,5.6,5.2,4.5,3.9,4.5z M13.1,4.5c-1.3,0-2.3,1-2.3,2.3v1.8c0,0.3,0.5,0.3,0.5,0V6.8
			c0-1,0.8-1.8,1.8-1.8c1,0,1.8,0.8,1.8,1.8v1.8c0,0.3,0.5,0.3,0.5,0V6.8C15.5,5.6,14.4,4.5,13.1,4.5z"/>
	</g>
</g>
<g id="Ebene_2" class="st0">
	<path class="st3" d="M13.3,6.8H13v4.5l0.1,0c0.6,0.2,1.1,0.4,1.6,0.7l0.2-0.3c-0.5-0.3-1-0.6-1.6-0.7V6.8z"/>
	<path class="st3" d="M13.2,2.3L13,2.2v3.9c-1.4,0.4-2.9,0.6-4.4,0.6c-1.5,0-3-0.2-4.4-0.6V2.2L3.9,2.3c-1.7,0.5-2.6,1.2-2.6,2v8.8
		c0,1.5,3.2,2.6,7.2,2.6s7.2-1.2,7.2-2.6V4.3C15.8,3.5,14.9,2.8,13.2,2.3z M3.8,2.6V6c-1.3-0.4-2.1-1-2.1-1.7
		C1.6,3.7,2.4,3.1,3.8,2.6z M15.5,13.1c0,1.3-3.2,2.3-6.9,2.3s-6.9-1.1-6.9-2.3v-8c0.9,1.1,3.6,1.8,6.9,1.8s6-0.8,6.9-1.8V13.1z
		 M13.3,6V2.6c1.3,0.4,2.1,1.1,2.1,1.7C15.5,4.9,14.6,5.5,13.3,6z"/>
	<path class="st3" d="M3.8,11.1c-0.6,0.2-1.1,0.4-1.6,0.7l0.2,0.3c0.5-0.3,1-0.6,1.6-0.7l0.1,0V6.8H3.8V11.1z"/>
	<path class="st3" d="M9.9,10.2L9.9,10.2c-0.3,0-0.5,0.1-0.7,0.4l-1.2,2c0,0.1-0.1,0.1-0.2,0c0,0,0,0,0,0l-0.6-0.6
		c-0.3-0.3-0.8-0.3-1.1,0c0,0,0,0,0,0l-1.8,2.2l0.3,0.2l1.8-2.2c0.2-0.2,0.4-0.2,0.6-0.1c0,0,0,0,0,0l0.6,0.6c0.2,0.2,0.5,0.2,0.6,0
		c0,0,0-0.1,0.1-0.1l1.2-2c0.1-0.1,0.2-0.2,0.4-0.2h0c0.2,0,0.3,0.1,0.4,0.2l2.2,3.8l0.3-0.2l-2.2-3.8C10.5,10.3,10.2,10.2,9.9,10.2
		z"/>
	<path class="st3" d="M6.6,11.1c0.5,0,0.8-0.4,0.8-0.8c0-0.5-0.4-0.8-0.8-0.8c-0.5,0-0.8,0.4-0.8,0.8c0,0,0,0,0,0
		C5.7,10.7,6.1,11.1,6.6,11.1z M6.6,9.8c0.3,0,0.5,0.2,0.5,0.5c0,0.3-0.2,0.5-0.5,0.5c-0.3,0-0.5-0.2-0.5-0.5c0,0,0,0,0,0
		C6.1,10,6.3,9.8,6.6,9.8L6.6,9.8z"/>
</g>
<g id="Ebene_3" class="st0">
	<g class="st1">
		<path class="st2" d="M5.8,4.8l0.3,0.1c0,0.1,0,0.2,0.1,0.4L5.9,5.4C5.8,5.5,5.8,5.5,5.7,5.7c0,0.1,0,0.2,0,0.3L6,6.3
			c0.1,0.2,0.4,0.3,0.6,0.1l0.3-0.2C7,6.4,7.1,6.5,7.2,6.5L7.1,6.8c0,0.1,0,0.2,0,0.3c0,0.1,0.1,0.2,0.2,0.2l0.4,0.1
			c0,0,0.1,0,0.1,0c0.2,0,0.3-0.1,0.4-0.3L8.4,7c0.1,0,0.1,0,0.2,0c0.1,0,0.1,0,0.2,0l0.1,0.3c0,0.1,0.1,0.2,0.2,0.2
			c0.1,0,0.2,0.1,0.3,0l0.4-0.1c0.1,0,0.2-0.1,0.2-0.2c0-0.1,0.1-0.2,0-0.3L10,6.5c0.1-0.1,0.2-0.2,0.3-0.2l0.3,0.2
			c0.1,0.1,0.2,0.1,0.3,0c0.1,0,0.2-0.1,0.3-0.2L11.4,6c0.1-0.1,0.1-0.2,0-0.3c0-0.1-0.1-0.2-0.2-0.2l-0.3-0.1C11,5.1,11,5,11,4.9
			l0.3-0.1c0.1,0,0.2-0.1,0.3-0.2c0.1-0.1,0.1-0.2,0.1-0.3l-0.1-0.4c0-0.2-0.3-0.4-0.5-0.3l-0.3,0.1c-0.1-0.1-0.1-0.2-0.2-0.3
			l0.2-0.2c0.2-0.2,0.1-0.4-0.1-0.6l-0.3-0.3c-0.1-0.1-0.2-0.1-0.3-0.1c-0.1,0-0.2,0.1-0.3,0.1L9.6,2.6C9.5,2.5,9.3,2.5,9.2,2.4
			l0-0.3c0-0.2-0.2-0.4-0.4-0.4c0,0,0,0,0,0l-0.4,0c-0.2,0-0.4,0.2-0.4,0.4l0,0.3c-0.1,0-0.3,0.1-0.4,0.1L7.3,2.3
			c-0.2-0.2-0.4-0.2-0.6,0L6.4,2.5C6.3,2.6,6.3,2.7,6.2,2.8c0,0.1,0,0.2,0.1,0.3l0.2,0.2C6.5,3.5,6.4,3.6,6.4,3.7L6,3.6
			C5.8,3.6,5.6,3.7,5.5,4L5.5,4.4c0,0.1,0,0.2,0.1,0.3C5.6,4.8,5.7,4.8,5.8,4.8z M6.1,4.2l0.3,0c0.2,0,0.4-0.1,0.5-0.2
			C6.9,3.8,7,3.7,7,3.6c0.1-0.2,0.1-0.4,0-0.5L6.8,2.9L7,2.7L7.2,3c0.1,0.1,0.3,0.2,0.5,0.1C7.8,3,8,2.9,8.1,2.9
			c0.2,0,0.3-0.2,0.3-0.4l0-0.3l0.2,0l0,0.3c0,0.2,0.1,0.4,0.3,0.4c0.1,0,0.3,0.1,0.4,0.1c0.2,0.1,0.4,0,0.5-0.1l0.2-0.2l0.2,0.1
			l-0.2,0.2c-0.1,0.1-0.1,0.4,0,0.5c0.1,0.1,0.2,0.2,0.2,0.4c0.1,0.2,0.3,0.3,0.5,0.2l0.3-0.1l0,0.2l-0.4,0.1
			c-0.1,0-0.2,0.1-0.2,0.3h0c0,0,0,0,0,0c0,0.2,0,0.3-0.1,0.5c-0.1,0.2,0,0.4,0.2,0.5l0.3,0.1L10.7,6l-0.3-0.1
			c-0.2-0.1-0.4-0.1-0.5,0.1C9.8,6,9.7,6.1,9.6,6.2C9.4,6.3,9.4,6.5,9.4,6.6l0.1,0.3L9.4,7L9.2,6.6c0-0.1-0.2-0.2-0.3-0.2
			c-0.1,0-0.2,0-0.3,0c-0.1,0-0.2,0-0.3,0c-0.1,0-0.3,0-0.3,0.2L7.8,7L7.6,6.9l0.1-0.3c0.1-0.2,0-0.4-0.2-0.5C7.4,6.1,7.3,6,7.2,5.9
			C7.1,5.8,6.8,5.7,6.7,5.8L6.4,6L6.3,5.8l0.3-0.1c0.2-0.1,0.3-0.3,0.2-0.5C6.7,5,6.7,4.8,6.7,4.7c0-0.1-0.1-0.2-0.2-0.3L6,4.3
			L6.1,4.2z"/>
		<path class="st2" d="M7.5,5.6C7.8,5.9,8.2,6,8.6,6c0,0,0,0,0,0c0.4,0,0.8-0.1,1-0.4C9.9,5.3,10,5,10,4.6c0-0.4-0.2-0.7-0.4-1
			C9.3,3.4,9,3.2,8.6,3.2c0,0,0,0,0,0c-0.8,0-1.5,0.6-1.5,1.4C7.1,5,7.3,5.3,7.5,5.6z M8.6,3.8C8.6,3.8,8.6,3.8,8.6,3.8
			C8.8,3.8,9,3.8,9.2,4c0.2,0.2,0.3,0.4,0.3,0.6c0,0,0,0,0,0c0,0.2-0.1,0.4-0.3,0.6C9,5.4,8.8,5.5,8.6,5.5c0,0,0,0,0,0
			c-0.5,0-0.9-0.4-0.9-0.9C7.6,4.1,8.1,3.8,8.6,3.8z"/>
		<path class="st2" d="M15.2,4.7h-3.3c-0.1,0-0.3,0.1-0.3,0.3s0.1,0.3,0.3,0.3h3.3c0.1,0,0.2,0.1,0.2,0.1V14c0,0.1-0.1,0.2-0.2,0.2
			H1.9c-0.1,0-0.2-0.1-0.2-0.2V5.3c0-0.1,0.1-0.1,0.2-0.1h3.3c0.1,0,0.3-0.1,0.3-0.3S5.3,4.7,5.2,4.7H1.9C1.5,4.7,1.2,5,1.2,5.3V14
			c0,0.4,0.3,0.7,0.7,0.7h3.6l-0.9,0.9c-0.1,0.1-0.1,0.2-0.1,0.3c0,0.1,0.1,0.2,0.3,0.2h7.6c0.1,0,0.2-0.1,0.2-0.2
			c0-0.1,0-0.2,0-0.3l-0.8-0.9h3.5c0.4,0,0.7-0.3,0.7-0.7V5.3C15.9,5,15.6,4.7,15.2,4.7z M11.7,15.4H5.4l0.8-0.8H11L11.7,15.4z"/>
		<path class="st2" d="M5.2,5.8H3C2.8,5.8,2.7,5.9,2.7,6v7.3c0,0.1,0.1,0.3,0.3,0.3h11.2c0.1,0,0.3-0.1,0.3-0.3V6
			c0-0.1-0.1-0.3-0.3-0.3h-2.2c-0.1,0-0.3,0.1-0.3,0.3s0.1,0.3,0.3,0.3h1.9v6.8H3.2V6.3h1.9c0.1,0,0.3-0.1,0.3-0.3S5.3,5.8,5.2,5.8z
			"/>
		<path class="st2" d="M7.3,8.6C7.2,8.5,7.1,8.4,7,8.5l-1.9,1C5,9.5,4.9,9.6,4.9,9.7c0,0.1,0.1,0.2,0.1,0.2L7,10.8c0,0,0.1,0,0.1,0
			c0.1,0,0.2-0.1,0.2-0.1c0.1-0.1,0-0.3-0.1-0.3L5.8,9.7l1.4-0.7C7.3,8.9,7.4,8.7,7.3,8.6z"/>
		<path class="st2" d="M9.8,10.7c0,0.1,0.1,0.1,0.2,0.1c0,0,0.1,0,0.1,0l1.9-0.9c0.1,0,0.1-0.1,0.1-0.2c0-0.1-0.1-0.2-0.1-0.2
			l-1.9-1c-0.1-0.1-0.3,0-0.4,0.1c-0.1,0.1,0,0.3,0.1,0.3l1.4,0.7l-1.4,0.7C9.8,10.5,9.7,10.6,9.8,10.7z"/>
		<path class="st2" d="M7.9,11.3c0.1,0,0.2-0.1,0.2-0.1l1.4-2.8c0.1-0.1,0-0.3-0.1-0.3C9.2,8,9.1,8,9,8.1L7.6,11
			c-0.1,0.1,0,0.3,0.1,0.3C7.8,11.3,7.8,11.3,7.9,11.3z"/>
	</g>
</g>
<g id="Ebene_4" class="st0">
	<path class="st4" d="M5.9,10.6c-0.9,0-1.7-0.7-1.7-1.7C4.2,8,5,7.3,5.9,7.3S7.5,8,7.5,8.9c0,0,0,0,0,0C7.5,9.9,6.8,10.6,5.9,10.6z
		 M11.1,7.3c0.9,0,1.7,0.7,1.7,1.7s-0.7,1.7-1.7,1.7S9.5,9.9,9.5,8.9C9.5,8,10.2,7.3,11.1,7.3z M15.7,7.8l-0.7-1.2
		c-0.1-0.2-0.4-0.4-0.6-0.4l-2.9-0.5l-0.6-0.6C10.9,5.1,10.8,5,10.7,5H6.3c-0.1,0-0.2,0-0.2,0.1L5.5,5.7L2.6,6.2
		C2.3,6.2,2.1,6.4,2,6.6L1.3,7.8C1.2,8,1.2,8.1,1.2,8.3v1.2c0,0.2,0,0.3,0.1,0.4L2,11.2c0.1,0.2,0.4,0.4,0.7,0.4l3,0.4
		c0.2,0,0.3-0.1,0.3-0.2c0-0.2-0.1-0.3-0.2-0.3l-3-0.4c-0.1,0-0.2-0.1-0.2-0.2L1.8,9.6c0,0,0-0.1,0-0.2V8.3c0-0.1,0-0.1,0-0.2
		l0.7-1.2c0-0.1,0.1-0.1,0.2-0.2l0.3,0v3.9c0,0.1,0.1,0.1,0.1,0.1s0.1-0.1,0.1-0.1V6.6l2.9-0.5h0.1h4.6h0.1l2.9,0.5v4
		c0,0.1,0.1,0.1,0.1,0.1s0.1-0.1,0.1-0.1V6.7l0.4,0.1c0.1,0,0.2,0.1,0.2,0.2l0.7,1.2c0,0,0,0.1,0,0.2v1.2c0,0.1,0,0.1,0,0.2L14.5,11
		c-0.1,0.1-0.1,0.2-0.2,0.2l-3,0.4c-0.2,0-0.3,0.1-0.3,0.3c0,0.2,0.1,0.3,0.3,0.3h0l3-0.4c0.3,0,0.5-0.2,0.7-0.4l0.8-1.3
		c0.1-0.1,0.1-0.3,0.1-0.4V8.3C15.8,8.1,15.8,8,15.7,7.8L15.7,7.8z M10.8,5.6H6.2c0,0-0.1,0-0.1,0L6,5.6l0.3-0.3c0,0,0,0,0.1,0h4.3
		c0,0,0,0,0,0l0.3,0.3l-0.1,0C10.9,5.6,10.9,5.6,10.8,5.6z M5.9,7.4c-0.8,0-1.5,0.7-1.5,1.5c0,0.8,0.7,1.5,1.5,1.5s1.5-0.7,1.5-1.5
		l0,0C7.4,8.1,6.7,7.4,5.9,7.4C5.9,7.4,5.9,7.4,5.9,7.4L5.9,7.4z M11.1,10.4c0.8,0,1.5-0.7,1.5-1.5c0-0.8-0.7-1.5-1.5-1.5
		S9.6,8.1,9.6,8.9C9.6,9.8,10.3,10.4,11.1,10.4C11.1,10.4,11.1,10.4,11.1,10.4L11.1,10.4z M10.4,11.9c0.1,0.1,0.1,0.1,0,0.2
		c-0.1,0.1-0.1,0.1-0.2,0l-1.5-1.5c-0.1-0.1-0.2-0.1-0.3,0l-1.5,1.5c-0.1,0.1-0.1,0.1-0.2,0c-0.1-0.1-0.1-0.1,0-0.2l1.5-1.5
		c0.2-0.2,0.5-0.2,0.6,0L10.4,11.9z"/>
</g>
<g id="Ebene_5" class="st0">
	<path class="st4" d="M11.3,8.8c-0.1,0-0.1-0.1-0.1-0.1s0.1-0.1,0.1-0.1c0.2,0,0.4-0.2,0.4-0.4s-0.2-0.4-0.4-0.4
		c-0.2,0-0.3,0.1-0.4,0.3c0,0.1-0.1,0.1-0.2,0.1c-0.1,0-0.1-0.1-0.1-0.2c0.1-0.3,0.4-0.5,0.6-0.5c0.4,0,0.7,0.3,0.7,0.7
		S11.6,8.8,11.3,8.8z"/>
	<path class="st4" d="M11.3,9.8c-0.3,0-0.5-0.2-0.6-0.5c0-0.1,0-0.2,0.1-0.2c0.1,0,0.2,0,0.2,0.1c0.1,0.1,0.2,0.3,0.4,0.3
		c0.2,0,0.4-0.2,0.4-0.4s-0.2-0.4-0.4-0.4c-0.1,0-0.1-0.1-0.1-0.1c0-0.1,0.1-0.1,0.1-0.1c0.4,0,0.7,0.3,0.7,0.7S11.6,9.8,11.3,9.8z"
		/>
	<path class="st4" d="M13,9.8h-0.6V7.4H13c0.5,0,0.8,0.4,0.8,0.8V9C13.8,9.5,13.4,9.8,13,9.8z M12.6,9.5h0.3c0.3,0,0.5-0.2,0.5-0.5
		V8.2c0-0.3-0.2-0.5-0.5-0.5h-0.3V9.5z"/>
	<path class="st4" d="M14.4,10.9H10c-0.4,0-0.6-0.3-0.6-0.6V9.2C9.4,9.1,9.5,9,9.5,9c0.1,0,0.1,0.1,0.1,0.1v1.1
		c0,0.2,0.2,0.3,0.3,0.3h4.3c0.2,0,0.3-0.2,0.3-0.3V9.2c0-0.1,0.1-0.1,0.1-0.1S15,9.1,15,9.2v1.1C15,10.6,14.7,10.9,14.4,10.9z"/>
	<path class="st4" d="M12.2,13.3l-1.1-0.9v-1.8c0-0.1,0.1-0.1,0.1-0.1s0.1,0.1,0.1,0.1v1.6l0.8,0.6l0.8-0.6v-1.6
		c0-0.1,0.1-0.1,0.1-0.1s0.1,0.1,0.1,0.1v1.8L12.2,13.3z"/>
	<path class="st4" d="M9.5,7.7c-0.1,0-0.1-0.1-0.1-0.1v-1h1c0.1,0,0.1,0.1,0.1,0.1c0,0.1-0.1,0.1-0.1,0.1H9.7v0.7
		C9.7,7.6,9.6,7.7,9.5,7.7z"/>
	<path class="st4" d="M14.9,7.7c-0.1,0-0.1-0.1-0.1-0.1V6.9H14c-0.1,0-0.1-0.1-0.1-0.1c0-0.1,0.1-0.1,0.1-0.1h1v1
		C15,7.6,14.9,7.7,14.9,7.7z"/>
	<path class="st4" d="M7.3,14.3c-0.4,0-0.7-0.1-1.1-0.3c-0.1,0-0.1-0.1-0.1-0.2c0-0.1,0.1-0.1,0.2-0.1C6.8,14,7.2,14.1,7.6,14
		c0.1,0,0.2,0,0.2,0.1c0,0.1,0,0.2-0.1,0.2C7.6,14.3,7.4,14.3,7.3,14.3z"/>
	<path class="st4" d="M10.2,15.1c-1.6,0-2.4-0.9-2.5-1.8C7.7,12.6,8,12,8.6,12c0.4,0,0.7,0.2,0.8,0.5c0.1,0.4,0,1-0.7,1.5
		c-0.1,0-0.2,0-0.2-0.1c0-0.1,0-0.2,0.1-0.2c0.5-0.3,0.6-0.8,0.5-1.1c-0.1-0.2-0.3-0.3-0.5-0.3c-0.5,0.1-0.7,0.6-0.6,1
		c0.1,1.2,1.4,1.6,2.5,1.5c1.4-0.1,1.5-1.3,1.5-1.7c0-0.1,0.1-0.1,0.1-0.1c0.1,0,0.1,0.1,0.1,0.1c0,0.9-0.5,1.9-1.8,2
		C10.4,15.1,10.3,15.1,10.2,15.1z"/>
	<path class="st4" d="M6.4,8.3c-0.1,0-0.1-0.1-0.1-0.1C6.2,8.1,6.3,8,6.4,8l0,0c0.1,0,0.1,0.1,0.1,0.1C6.5,8.2,6.5,8.3,6.4,8.3z"/>
	<path class="st4" d="M8.3,8.8h-6C2,8.8,1.7,8.6,1.7,8.2V7.6c0-0.1,0.1-0.1,0.1-0.1h1.7c0.1,0,0.1,0.1,0.1,0.1
		c0,0.1-0.1,0.1-0.1,0.1H2v0.5c0,0.2,0.1,0.3,0.3,0.3h6c0.1,0,0.1,0.1,0.1,0.1C8.5,8.8,8.4,8.8,8.3,8.8z"/>
	<path class="st4" d="M8.3,7.8H1.8c-0.1,0-0.1-0.1-0.1-0.1V3c0-0.3,0.3-0.6,0.6-0.6h8.1C10.8,2.4,11,2.7,11,3v2.8
		C11,5.9,11,6,10.9,6c-0.1,0-0.1-0.1-0.1-0.1V3c0-0.2-0.1-0.3-0.3-0.3H2.3C2.2,2.7,2,2.8,2,3v4.4h6.3c0.1,0,0.1,0.1,0.1,0.1
		C8.5,7.7,8.4,7.8,8.3,7.8z"/>
	<path class="st4" d="M8.4,11.3H4.3c-0.1,0-0.1,0-0.1-0.1c0-0.1,0-0.1,0-0.2l0.5-0.4l0.2-0.1c0.3-0.3,0.4-0.8,0.2-1.2
		c0-0.1,0-0.2,0.1-0.2s0.2,0,0.2,0.1c0.3,0.5,0.2,1.1-0.3,1.5L5,10.9L4.8,11H8l-0.2-0.2l-0.2-0.2c-0.4-0.4-0.5-1-0.3-1.5
		c0-0.1,0.1-0.1,0.2-0.1c0.1,0,0.1,0.1,0.1,0.2c-0.2,0.4-0.1,0.9,0.2,1.2L8,10.6l0.5,0.4c0.1,0,0.1,0.1,0,0.2
		C8.5,11.3,8.5,11.3,8.4,11.3z"/>
	<path class="st4" d="M8.8,6.5C8.5,6.5,8.3,6.2,8.3,6c0-0.3,0.2-0.5,0.5-0.5S9.3,5.7,9.3,6C9.3,6.2,9.1,6.5,8.8,6.5z M8.8,5.7
		C8.6,5.7,8.5,5.8,8.5,6c0,0.2,0.1,0.3,0.3,0.3S9.1,6.1,9.1,6C9.1,5.8,9,5.7,8.8,5.7z"/>
	<path class="st4" d="M4.5,6.5C4.2,6.5,4,6.2,4,6c0-0.3,0.2-0.5,0.5-0.5S5,5.7,5,6C5,6.2,4.8,6.5,4.5,6.5z M4.5,5.7
		C4.3,5.7,4.2,5.8,4.2,6c0,0.2,0.1,0.3,0.3,0.3S4.8,6.1,4.8,6C4.8,5.8,4.7,5.7,4.5,5.7z"/>
	<path class="st4" d="M3.6,6H3.1C2.8,6,2.7,5.9,2.6,5.7C2.4,5.4,2.4,5,2.6,4.8V4.5c0-0.1,0-0.1,0.1-0.2c0,0,0.1-0.1,0.2-0.1
		c0.3,0,0.6-0.1,0.8-0.2C4.4,3.7,5,3.7,5.8,3.7c0.1,0,0.2,0,0.3,0c0.5,0,0.8,0.2,1.2,0.4c0.3,0.2,0.6,0.3,1.1,0.3
		c0.8,0,1.2,0.2,1.4,0.3c0,0,0.4,0.2,0.4,0.7v0.4c0,0.1-0.1,0.1-0.1,0.1S9.8,5.9,9.8,5.8V5.4c0-0.3-0.2-0.4-0.2-0.4
		C9.4,4.9,9,4.7,8.3,4.7c-0.5,0-0.8-0.2-1.2-0.4C6.8,4.1,6.5,4,6,4C5.9,4,5.9,4,5.8,4C5.1,4,4.5,4,3.8,4.3C3.5,4.5,3.2,4.6,2.9,4.6
		v0.2c0,0,0,0.1,0,0.1C2.8,5.1,2.7,5.4,2.8,5.6C2.9,5.7,3,5.7,3.1,5.7h0.6c0.1,0,0.1,0.1,0.1,0.1S3.7,6,3.6,6z"/>
	<path class="st4" d="M7.8,6H5.4C5.3,6,5.2,6,5.2,5.9s0.1-0.1,0.1-0.1h2.5C7.9,5.7,8,5.8,8,5.9S7.9,6,7.8,6z"/>
</g>
<g id="Ebene_6">
	<g>
		<path class="st5" d="M11.6,11.3c-0.1,0-0.1,0.1-0.1,0.1c0,0,0,0,0,0v0.1H8.8v-0.1c0-0.1-0.1-0.1-0.1-0.1c-0.1,0-0.1,0.1-0.1,0.1
			v0.1H6v-0.1c0-0.1-0.1-0.1-0.1-0.1c-0.1,0-0.1,0.1-0.1,0.1v0.6c0,0.1,0.1,0.1,0.1,0.1c0.1,0,0.1-0.1,0.1-0.1v-0.1h2.6v0.1
			c0,0.1,0.1,0.1,0.1,0.1c0.1,0,0.1-0.1,0.1-0.1v-0.1h2.6v0.1c0,0.1,0.1,0.1,0.1,0.1c0.1,0,0.1-0.1,0.1-0.1v-0.6
			C11.7,11.4,11.6,11.3,11.6,11.3z"/>
		<path class="st5" d="M13.9,4c-0.4,0-0.8,0.2-1.1,0.5c-0.3,0.3-0.5,0.7-0.5,1.1v1.2h-0.7V6l0,0c0,0,0-0.1,0-0.1l0,0c0,0,0,0,0,0
			l0,0c0,0,0,0,0,0L8.8,4.2c0,0-0.1,0-0.2,0L5.8,5.9c0,0,0,0,0,0l0,0c0,0,0,0,0,0l0,0c0,0,0,0.1,0,0.1l0,0v0.7H5.1V5.5
			c0-0.4-0.2-0.8-0.5-1.1C4.3,4.1,4,4,3.5,4C2.7,4,2,4.7,2,5.5v6.3c0,0.9,0.7,1.5,1.5,1.5h10.3c0.9,0,1.5-0.7,1.5-1.5V5.5
			C15.4,4.7,14.7,4,13.9,4z M8.7,4.5L11.2,6L8.7,7.6L6.2,6L8.7,4.5z M11.4,6.3v2.8l-2.5,1.6V7.9L11.4,6.3z M6,6.3l2.5,1.6v2.8L6,9.1
			L6,6.3z M2.3,5.5c0-0.7,0.6-1.3,1.3-1.3c0.3,0,0.7,0.1,0.9,0.4l0,0c0.2,0.2,0.4,0.6,0.4,0.9v5.4c-0.5-0.7-1.5-0.9-2.1-0.4
			c-0.1,0.1-0.3,0.2-0.4,0.4L2.3,5.5z M13.9,13H3.5c-0.7,0-1.3-0.6-1.3-1.3c0-0.7,0.6-1.3,1.3-1.3c0.7,0,1.3,0.6,1.3,1.3
			c0,0,0,0,0,0c0,0.1,0.1,0.1,0.1,0.1c0.1,0,0.1-0.1,0.1-0.1V7h0.7v2.1c0,0,0,0,0,0l0,0l0,0l0,0c0,0,0,0.1,0.1,0.1l0,0L8.6,11
			c0,0,0,0,0.1,0l0,0c0,0,0.1,0,0.1,0l2.8-1.7h0c0,0,0,0,0.1-0.1l0,0l0,0l0,0c0,0,0,0,0,0V7h0.7v4.8c0,0.1,0.1,0.1,0.1,0.1
			c0.1,0,0.1-0.1,0.1-0.1c0-0.7,0.6-1.3,1.3-1.3c0.7,0,1.3,0.6,1.3,1.3S14.5,13,13.9,13C13.8,13,13.8,13,13.9,13L13.9,13z
			 M15.1,10.9c-0.5-0.7-1.5-0.9-2.1-0.4c-0.1,0.1-0.3,0.2-0.4,0.4V5.5c0-0.3,0.1-0.7,0.4-0.9c0.2-0.2,0.6-0.4,0.9-0.4
			c0.7,0,1.3,0.6,1.3,1.3V10.9z"/>
		<path class="st6" d="M12.5,13.9H6.4c0,0,0,0,0,0c0,0,0,0,0,0l-1.9,0.8c-0.1,0-0.1,0.1-0.1,0.2c0,0,0,0.1,0.1,0.1l1.9,0.8
			c0,0,0,0,0,0c0,0,0,0,0,0h6.1c0.4,0,0.7-0.3,0.7-0.7v-0.5C13.1,14.2,12.8,13.9,12.5,13.9z M6.2,15.4l-1.4-0.6l1.4-0.6V15.4z
			 M11.6,15.5H6.5V15h5.1V15.5z M11.6,14.7H6.5v-0.5h5.1V14.7z M12.8,15.1c0,0.2-0.2,0.4-0.4,0.4c0,0,0,0,0,0h-0.6v-1.2h0.6
			c0.2,0,0.4,0.2,0.4,0.4V15.1z"/>
	</g>
</g>
</svg>
