<?xml version="1.0" encoding="utf-8"?>
<!-- Generator: Adobe Illustrator 26.2.1, SVG Export Plug-In . SVG Version: 6.00 Build 0)  -->
<svg version="1.1" xmlns="http://www.w3.org/2000/svg" xmlns:xlink="http://www.w3.org/1999/xlink" x="0px" y="0px"
	 viewBox="0 0 16.9 16.9" style="enable-background:new 0 0 16.9 16.9;" xml:space="preserve">
<style type="text/css">
	.st0{display:none;}
	.st1{display:inline;}
	.st2{fill:#D2D2D2;}
	.st3{display:inline;fill:#D2D2D2;stroke:#D2D2D2;stroke-width:0.2;stroke-miterlimit:10;}
	.st4{display:inline;fill:#D2D2D2;stroke:#D2D2D2;stroke-width:0.15;stroke-miterlimit:10;}
	.st5{fill:#D2D2D2;stroke:#D2D2D2;stroke-width:0.15;stroke-miterlimit:10;}
	.st6{display:none;fill:#D2D2D2;stroke:#D2D2D2;stroke-width:0.15;stroke-miterlimit:10;}
</style>
<g id="Ebene_1" xmlns:cc="http://creativecommons.org/ns#" xmlns:dc="http://purl.org/dc/elements/1.1/" xmlns:inkscape="http://www.inkscape.org/namespaces/inkscape" xmlns:rdf="http://www.w3.org/1999/02/22-rdf-syntax-ns#" xmlns:sodipodi="http://sodipodi.sourceforge.net/DTD/sodipodi-0.dtd" xmlns:svg="http://www.w3.org/2000/svg" class="st0">
	<g transform="translate(0,6.3500001)" class="st1">
		<path class="st2" d="M5.8-4.2C5.7-4.2,5.6-4.1,5.6-4v4.5c0,0.2,0.2,0.3,0.4,0.2l1.6-1.3h3.6c0.1,0,0.2-0.1,0.2-0.2V-4
			c0-0.1-0.1-0.2-0.2-0.2H5.8C5.9-4.2,5.9-4.2,5.8-4.2z M6.1-3.7H11V-1H7.5C7.4-1,7.4-1,7.3-1L6.1,0V-3.7z M3.9,0.9
			C3,0.9,2.3,1.7,2.3,2.6c0,0.9,0.7,1.7,1.7,1.7c0.9,0,1.7-0.7,1.7-1.7C5.6,1.7,4.8,0.9,3.9,0.9z M13.1,0.9c-0.9,0-1.7,0.7-1.7,1.7
			c0,0.9,0.7,1.7,1.7,1.7c0.9,0,1.7-0.7,1.7-1.7C14.8,1.7,14.1,0.9,13.1,0.9z M3.9,1.4c0.7,0,1.2,0.5,1.2,1.2c0,0.7-0.5,1.2-1.2,1.2
			c-0.7,0-1.2-0.5-1.2-1.2C2.7,1.9,3.3,1.4,3.9,1.4z M13.1,1.4c0.7,0,1.2,0.5,1.2,1.2c0,0.7-0.5,1.2-1.2,1.2S12,3.2,12,2.6
			C12,1.9,12.5,1.4,13.1,1.4z M3.9,4.5c-1.3,0-2.3,1-2.3,2.3v1.8c0,0.3,0.5,0.3,0.5,0V6.8c0-1,0.8-1.8,1.8-1.8c1,0,1.8,0.8,1.8,1.8
			v1.8c0,0.3,0.5,0.3,0.5,0V6.8C6.2,5.6,5.2,4.5,3.9,4.5z M13.1,4.5c-1.3,0-2.3,1-2.3,2.3v1.8c0,0.3,0.5,0.3,0.5,0V6.8
			c0-1,0.8-1.8,1.8-1.8c1,0,1.8,0.8,1.8,1.8v1.8c0,0.3,0.5,0.3,0.5,0V6.8C15.5,5.6,14.4,4.5,13.1,4.5z"/>
	</g>
</g>
<g id="Ebene_2" class="st0">
	<path class="st3" d="M12.6,7h-0.3v3.9l0.1,0c0.5,0.1,1,0.3,1.4,0.6l0.2-0.2c-0.4-0.3-0.9-0.5-1.4-0.6V7z"/>
	<path class="st3" d="M12.5,3.1L12.3,3v3.3c-1.2,0.3-2.5,0.5-3.8,0.5C7.3,6.8,6,6.6,4.8,6.3V3L4.6,3.1c-1.4,0.4-2.2,1-2.2,1.7v7.5
		c0,1.3,2.7,2.3,6.2,2.3s6.2-1,6.2-2.3V4.8C14.7,4.1,13.9,3.5,12.5,3.1z M4.5,3.4v2.8C3.4,5.9,2.6,5.4,2.6,4.8
		C2.6,4.3,3.3,3.8,4.5,3.4z M14.4,12.4c0,1.1-2.7,2-5.9,2s-5.9-0.9-5.9-2V5.5c0.8,0.9,3.1,1.6,5.9,1.6s5.1-0.7,5.9-1.6V12.4z
		 M12.6,6.2V3.4c1.2,0.4,1.8,0.9,1.8,1.4C14.4,5.4,13.7,5.9,12.6,6.2z"/>
	<path class="st3" d="M4.5,10.7C4,10.8,3.5,11,3.1,11.3l0.2,0.2c0.4-0.3,0.9-0.5,1.4-0.6l0.1,0V7H4.5V10.7z"/>
	<path class="st3" d="M9.7,9.9L9.7,9.9c-0.2,0-0.5,0.1-0.6,0.3l-1,1.7C8.1,12,8.1,12,8,12c0,0,0,0,0,0l-0.5-0.5
		c-0.3-0.2-0.7-0.2-0.9,0c0,0,0,0,0,0L5,13.4l0.2,0.2l1.5-1.9c0.1-0.2,0.4-0.2,0.5,0c0,0,0,0,0,0l0.5,0.5c0.2,0.1,0.4,0.1,0.5,0
		c0,0,0,0,0.1-0.1l1-1.7c0.1-0.1,0.2-0.2,0.3-0.2h0c0.1,0,0.3,0.1,0.3,0.2l1.9,3.2l0.2-0.1l-1.9-3.2C10.2,10,10,9.9,9.7,9.9z"/>
	<path class="st3" d="M6.8,10.6c0.4,0,0.7-0.3,0.7-0.7c0-0.4-0.3-0.7-0.7-0.7c-0.4,0-0.7,0.3-0.7,0.7c0,0,0,0,0,0
		C6.1,10.3,6.5,10.6,6.8,10.6z M6.8,9.5c0.2,0,0.4,0.2,0.4,0.4c0,0.2-0.2,0.4-0.4,0.4c-0.2,0-0.4-0.2-0.4-0.4c0,0,0,0,0,0
		C6.4,9.7,6.6,9.5,6.8,9.5L6.8,9.5z"/>
</g>
<g id="Ebene_3" class="st0">
	<g class="st1">
		<path class="st2" d="M6.3,5.1l0.3,0c0,0.1,0,0.2,0.1,0.3L6.4,5.6c-0.1,0-0.1,0.1-0.2,0.2c0,0.1,0,0.2,0,0.3l0.2,0.3
			c0.1,0.2,0.3,0.2,0.5,0.1l0.2-0.1c0.1,0.1,0.2,0.1,0.2,0.2L7.3,6.8c0,0.1,0,0.2,0,0.3c0,0.1,0.1,0.1,0.2,0.2l0.3,0.1
			c0,0,0.1,0,0.1,0c0.1,0,0.3-0.1,0.3-0.2l0.1-0.2c0.1,0,0.1,0,0.2,0c0.1,0,0.1,0,0.2,0l0.1,0.2c0,0.1,0.1,0.2,0.2,0.2
			c0.1,0,0.2,0,0.3,0l0.3-0.1c0.1,0,0.2-0.1,0.2-0.2c0-0.1,0-0.2,0-0.3L9.7,6.5c0.1-0.1,0.2-0.1,0.2-0.2l0.2,0.1
			c0.1,0,0.2,0.1,0.3,0c0.1,0,0.2-0.1,0.2-0.2l0.2-0.3c0-0.1,0.1-0.2,0-0.3c0-0.1-0.1-0.2-0.2-0.2l-0.2-0.1c0-0.1,0-0.2,0.1-0.3
			l0.3,0C10.9,5.1,11,5.1,11,5c0.1-0.1,0.1-0.2,0.1-0.3L11,4.4c0-0.2-0.2-0.3-0.4-0.3l-0.3,0c0-0.1-0.1-0.2-0.2-0.3l0.2-0.2
			c0.1-0.1,0.1-0.4,0-0.5L10,3C10,3,9.9,2.9,9.8,3C9.7,3,9.6,3,9.5,3.1L9.4,3.3c-0.1,0-0.2-0.1-0.3-0.1l0-0.2c0-0.2-0.2-0.3-0.4-0.3
			c0,0,0,0,0,0l-0.3,0C8.2,2.6,8,2.7,8,2.9l0,0.2c-0.1,0-0.2,0.1-0.3,0.1L7.5,3.1C7.4,2.9,7.2,2.9,7,3L6.8,3.3
			C6.7,3.3,6.6,3.4,6.6,3.5c0,0.1,0,0.2,0.1,0.2l0.2,0.2C6.8,4,6.8,4.1,6.7,4.2l-0.3,0C6.3,4.1,6.1,4.2,6,4.4L6,4.7C6,4.8,6,4.9,6,5
			C6.1,5.1,6.2,5.1,6.3,5.1z M6.5,4.6l0.2,0c0.2,0,0.3-0.1,0.4-0.2c0-0.1,0.1-0.2,0.2-0.3c0.1-0.1,0.1-0.3,0-0.4L7.1,3.5l0.1-0.1
			l0.2,0.2c0.1,0.1,0.3,0.2,0.4,0.1c0.1-0.1,0.2-0.1,0.3-0.1c0.2,0,0.3-0.2,0.3-0.3l0-0.2l0.2,0l0,0.2c0,0.2,0.1,0.3,0.3,0.3
			c0.1,0,0.2,0.1,0.3,0.1c0.1,0.1,0.3,0,0.4-0.1l0.2-0.2l0.1,0.1L9.8,3.7C9.7,3.8,9.7,4,9.8,4.1C9.9,4.2,9.9,4.3,10,4.4
			c0.1,0.1,0.2,0.2,0.4,0.2l0.2,0l0,0.2l-0.3,0.1c-0.1,0-0.2,0.1-0.2,0.2h0c0,0,0,0,0,0c0,0.1,0,0.3-0.1,0.4c0,0.2,0,0.3,0.2,0.4
			l0.2,0.1l-0.1,0.1l-0.2-0.1C10,5.9,9.8,5.9,9.7,6C9.6,6.1,9.5,6.2,9.4,6.2C9.3,6.3,9.2,6.5,9.3,6.6l0.1,0.2L9.2,6.9L9.1,6.6
			c0-0.1-0.1-0.2-0.2-0.1c-0.1,0-0.2,0-0.3,0c-0.1,0-0.2,0-0.3,0c-0.1,0-0.2,0-0.2,0.1L7.9,6.9L7.7,6.8l0.1-0.2
			c0.1-0.1,0-0.3-0.1-0.4C7.6,6.2,7.5,6.1,7.4,6C7.3,5.9,7.1,5.9,7,5.9L6.8,6.1L6.7,5.9l0.2-0.1C7,5.7,7.1,5.6,7,5.4
			C7,5.3,7,5.1,7,5c0-0.1-0.1-0.2-0.2-0.2L6.4,4.7L6.5,4.6z"/>
		<path class="st2" d="M7.7,5.8C7.9,6,8.2,6.1,8.5,6.1c0,0,0,0,0,0c0.3,0,0.6-0.1,0.8-0.3C9.6,5.5,9.7,5.3,9.7,5
			c0-0.3-0.1-0.6-0.4-0.8C9.2,3.9,8.9,3.8,8.5,3.8c0,0,0,0,0,0C7.9,3.8,7.3,4.3,7.3,5C7.3,5.3,7.5,5.5,7.7,5.8z M8.5,4.2
			C8.5,4.2,8.5,4.2,8.5,4.2c0.2,0,0.4,0.1,0.5,0.2C9.2,4.6,9.3,4.8,9.3,5c0,0,0,0,0,0c0,0.2-0.1,0.4-0.2,0.5
			C8.9,5.6,8.7,5.7,8.5,5.7c0,0,0,0,0,0C8.1,5.7,7.8,5.4,7.8,5C7.8,4.6,8.1,4.2,8.5,4.2z"/>
		<path class="st2" d="M14,5.2h-2.7c-0.1,0-0.2,0.1-0.2,0.2c0,0.1,0.1,0.2,0.2,0.2H14c0.1,0,0.1,0.1,0.1,0.1v7.1
			c0,0.1-0.1,0.1-0.1,0.1H3.1c-0.1,0-0.1-0.1-0.1-0.1V5.8c0-0.1,0.1-0.1,0.1-0.1h2.7C5.9,5.6,6,5.5,6,5.4S5.9,5.2,5.8,5.2H3.1
			c-0.3,0-0.6,0.2-0.6,0.5v7.1c0,0.3,0.3,0.5,0.6,0.5H6l-0.7,0.7c-0.1,0.1-0.1,0.2,0,0.2c0,0.1,0.1,0.1,0.2,0.1h6.2
			c0.1,0,0.2,0,0.2-0.1c0-0.1,0-0.2,0-0.2l-0.7-0.7H14c0.3,0,0.6-0.2,0.6-0.5V5.8C14.6,5.5,14.3,5.2,14,5.2z M11.2,14.1H6l0.7-0.6
			h3.9L11.2,14.1z"/>
		<path class="st2" d="M7.5,8.5C7.5,8.4,7.3,8.4,7.2,8.4L5.7,9.2c-0.1,0-0.1,0.1-0.1,0.2c0,0.1,0,0.1,0.1,0.2l1.6,0.8
			c0,0,0.1,0,0.1,0c0.1,0,0.2,0,0.2-0.1c0.1-0.1,0-0.2-0.1-0.3L6.2,9.4l1.2-0.6C7.5,8.7,7.6,8.6,7.5,8.5z"/>
		<path class="st2" d="M9.6,10.3c0,0.1,0.1,0.1,0.2,0.1c0,0,0.1,0,0.1,0l1.6-0.8c0.1,0,0.1-0.1,0.1-0.2c0-0.1,0-0.2-0.1-0.2L9.9,8.4
			c-0.1-0.1-0.2,0-0.3,0.1c-0.1,0.1,0,0.2,0.1,0.3l1.2,0.6L9.7,10C9.5,10,9.5,10.2,9.6,10.3z"/>
		<path class="st2" d="M8,10.7c0.1,0,0.2,0,0.2-0.1l1.1-2.3c0.1-0.1,0-0.2-0.1-0.3C9.1,8,9,8,8.9,8.1l-1.1,2.3
			C7.7,10.6,7.8,10.7,8,10.7C7.9,10.7,7.9,10.7,8,10.7z"/>
	</g>
</g>
<g id="Ebene_4" class="st0">
	<path class="st4" d="M5.9,10.6c-0.9,0-1.7-0.7-1.7-1.7C4.2,8,5,7.3,5.9,7.3S7.5,8,7.5,8.9c0,0,0,0,0,0C7.5,9.9,6.8,10.6,5.9,10.6z
		 M11.1,7.3c0.9,0,1.7,0.7,1.7,1.7s-0.7,1.7-1.7,1.7S9.5,9.9,9.5,8.9C9.5,8,10.2,7.3,11.1,7.3z M15.7,7.8l-0.7-1.2
		c-0.1-0.2-0.4-0.4-0.6-0.4l-2.9-0.5l-0.6-0.6C10.9,5.1,10.8,5,10.7,5H6.3c-0.1,0-0.2,0-0.2,0.1L5.5,5.7L2.6,6.2
		C2.3,6.2,2.1,6.4,2,6.6L1.3,7.8C1.2,8,1.2,8.1,1.2,8.3v1.2c0,0.2,0,0.3,0.1,0.4L2,11.2c0.1,0.2,0.4,0.4,0.7,0.4l3,0.4
		c0.2,0,0.3-0.1,0.3-0.2c0-0.2-0.1-0.3-0.2-0.3l-3-0.4c-0.1,0-0.2-0.1-0.2-0.2L1.8,9.6c0,0,0-0.1,0-0.2V8.3c0-0.1,0-0.1,0-0.2
		l0.7-1.2c0-0.1,0.1-0.1,0.2-0.2l0.3,0v3.9c0,0.1,0.1,0.1,0.1,0.1s0.1-0.1,0.1-0.1V6.6l2.9-0.5h0.1h4.6h0.1l2.9,0.5v4
		c0,0.1,0.1,0.1,0.1,0.1s0.1-0.1,0.1-0.1V6.7l0.4,0.1c0.1,0,0.2,0.1,0.2,0.2l0.7,1.2c0,0,0,0.1,0,0.2v1.2c0,0.1,0,0.1,0,0.2L14.5,11
		c-0.1,0.1-0.1,0.2-0.2,0.2l-3,0.4c-0.2,0-0.3,0.1-0.3,0.3c0,0.2,0.1,0.3,0.3,0.3h0l3-0.4c0.3,0,0.5-0.2,0.7-0.4l0.8-1.3
		c0.1-0.1,0.1-0.3,0.1-0.4V8.3C15.8,8.1,15.8,8,15.7,7.8L15.7,7.8z M10.8,5.6H6.2c0,0-0.1,0-0.1,0L6,5.6l0.3-0.3c0,0,0,0,0.1,0h4.3
		c0,0,0,0,0,0l0.3,0.3l-0.1,0C10.9,5.6,10.9,5.6,10.8,5.6z M5.9,7.4c-0.8,0-1.5,0.7-1.5,1.5c0,0.8,0.7,1.5,1.5,1.5s1.5-0.7,1.5-1.5
		l0,0C7.4,8.1,6.7,7.4,5.9,7.4C5.9,7.4,5.9,7.4,5.9,7.4L5.9,7.4z M11.1,10.4c0.8,0,1.5-0.7,1.5-1.5c0-0.8-0.7-1.5-1.5-1.5
		S9.6,8.1,9.6,8.9C9.6,9.8,10.3,10.4,11.1,10.4C11.1,10.4,11.1,10.4,11.1,10.4L11.1,10.4z M10.4,11.9c0.1,0.1,0.1,0.1,0,0.2
		c-0.1,0.1-0.1,0.1-0.2,0l-1.5-1.5c-0.1-0.1-0.2-0.1-0.3,0l-1.5,1.5c-0.1,0.1-0.1,0.1-0.2,0c-0.1-0.1-0.1-0.1,0-0.2l1.5-1.5
		c0.2-0.2,0.5-0.2,0.6,0L10.4,11.9z"/>
</g>
<g id="Ebene_5">
	<path class="st5" d="M12.3,10.2c-0.1,0-0.1-0.1-0.1-0.1c0-0.1,0.1-0.1,0.1-0.1c0.2,0,0.3-0.1,0.3-0.3s-0.1-0.3-0.3-0.3
		c-0.1,0-0.2,0.1-0.3,0.2c0,0.1-0.1,0.1-0.1,0.1c-0.1,0-0.1-0.1-0.1-0.1c0.1-0.2,0.3-0.4,0.5-0.4c0.3,0,0.5,0.2,0.5,0.5
		S12.6,10.2,12.3,10.2z"/>
	<path class="st5" d="M12.3,11c-0.2,0-0.4-0.1-0.5-0.4c0-0.1,0-0.1,0.1-0.1c0.1,0,0.1,0,0.1,0.1c0,0.1,0.2,0.2,0.3,0.2
		c0.2,0,0.3-0.1,0.3-0.3c0-0.2-0.1-0.3-0.3-0.3c-0.1,0-0.1-0.1-0.1-0.1c0-0.1,0.1-0.1,0.1-0.1c0.3,0,0.5,0.2,0.5,0.5
		S12.6,11,12.3,11z"/>
	<path class="st5" d="M13.6,11h-0.5V9.1h0.5c0.4,0,0.6,0.3,0.6,0.6v0.6C14.3,10.7,14,11,13.6,11z M13.4,10.8h0.2
		c0.2,0,0.4-0.2,0.4-0.4V9.7c0-0.2-0.2-0.4-0.4-0.4h-0.2V10.8z"/>
	<path class="st5" d="M14.7,11.8h-3.4c-0.3,0-0.5-0.2-0.5-0.5v-0.8c0-0.1,0.1-0.1,0.1-0.1c0.1,0,0.1,0.1,0.1,0.1v0.8
		c0,0.1,0.1,0.3,0.3,0.3h3.4c0.1,0,0.3-0.1,0.3-0.3v-0.8c0-0.1,0.1-0.1,0.1-0.1c0.1,0,0.1,0.1,0.1,0.1v0.8
		C15.2,11.6,15,11.8,14.7,11.8z"/>
	<path class="st5" d="M13,13.7l-0.8-0.7v-1.4c0-0.1,0.1-0.1,0.1-0.1s0.1,0.1,0.1,0.1v1.3l0.6,0.5l0.6-0.5v-1.3
		c0-0.1,0.1-0.1,0.1-0.1s0.1,0.1,0.1,0.1v1.4L13,13.7z"/>
	<path class="st5" d="M7.5,10.3c-0.1,0-0.2-0.1-0.2-0.2c0-0.1,0.1-0.2,0.2-0.2l0,0c0.1,0,0.2,0.1,0.2,0.2
		C7.6,10.2,7.6,10.3,7.5,10.3z"/>
	<path class="st5" d="M9.8,10.9H2.6c-0.4,0-0.8-0.3-0.8-0.8V9.5c0-0.1,0.1-0.2,0.2-0.2h2.1c0.1,0,0.2,0.1,0.2,0.2
		c0,0.1-0.1,0.2-0.2,0.2H2.1v0.5c0,0.2,0.2,0.4,0.4,0.4h7.3c0.1,0,0.2,0.1,0.2,0.2C10,10.9,9.9,10.9,9.8,10.9z"/>
	<path class="st5" d="M9.8,9.6H2c-0.1,0-0.2-0.1-0.2-0.2V3.9c0-0.4,0.3-0.8,0.8-0.8h9.8c0.4,0,0.8,0.3,0.8,0.8v3.4
		c0,0.1-0.1,0.2-0.2,0.2s-0.2-0.1-0.2-0.2V3.9c0-0.2-0.2-0.4-0.4-0.4H2.6c-0.2,0-0.4,0.2-0.4,0.4v5.4h7.7c0.1,0,0.2,0.1,0.2,0.2
		C10,9.5,9.9,9.6,9.8,9.6z"/>
	<path class="st5" d="M9.9,13.9H5c-0.1,0-0.1,0-0.2-0.1c0-0.1,0-0.1,0-0.2l0.6-0.5l0.2-0.2c0.4-0.4,0.5-0.9,0.2-1.4
		c0-0.1,0-0.2,0.1-0.2c0.1,0,0.2,0,0.2,0.1C6.6,12,6.5,12.7,6,13.2l-0.2,0.2l-0.3,0.2h3.9l-0.3-0.2l-0.2-0.2
		c-0.5-0.5-0.6-1.2-0.3-1.8c0-0.1,0.2-0.1,0.2-0.1c0.1,0,0.1,0.2,0.1,0.2c-0.2,0.5-0.1,1,0.2,1.4l0.2,0.2l0.6,0.5
		c0.1,0,0.1,0.1,0,0.2C10.1,13.9,10,13.9,9.9,13.9z"/>
	<path class="st5" d="M10.4,8.1c-0.3,0-0.6-0.3-0.6-0.6s0.3-0.6,0.6-0.6S11,7.1,11,7.4C11,7.8,10.8,8.1,10.4,8.1z M10.4,7.1
		c-0.2,0-0.4,0.2-0.4,0.4s0.2,0.4,0.4,0.4s0.4-0.2,0.4-0.4S10.6,7.1,10.4,7.1z"/>
	<path class="st5" d="M5.2,8.1c-0.3,0-0.6-0.3-0.6-0.6s0.3-0.6,0.6-0.6c0.3,0,0.6,0.3,0.6,0.6C5.8,7.8,5.5,8.1,5.2,8.1z M5.2,7.1
		C5,7.1,4.8,7.2,4.8,7.4S5,7.8,5.2,7.8c0.2,0,0.4-0.2,0.4-0.4C5.5,7.2,5.4,7.1,5.2,7.1z"/>
	<path class="st5" d="M4.1,7.5H3.5c-0.3,0-0.5-0.1-0.6-0.4C2.7,6.8,2.7,6.3,2.9,6V5.7c0-0.1,0-0.1,0.1-0.2c0,0,0.1-0.1,0.2-0.1
		c0.3,0,0.7-0.1,1-0.3c0.9-0.5,1.6-0.5,2.5-0.5c0.1,0,0.2,0,0.3,0c0.6,0,1,0.2,1.4,0.4c0.4,0.2,0.8,0.4,1.3,0.4c1,0,1.5,0.2,1.7,0.3
		c0,0,0.5,0.2,0.5,0.9v0.5c0,0.1-0.1,0.2-0.2,0.2c-0.1,0-0.2-0.1-0.2-0.2V6.8c0-0.4-0.2-0.5-0.3-0.5C11.1,6.1,10.7,6,9.7,5.9
		c-0.6,0-1-0.3-1.4-0.5C7.9,5.2,7.6,5.1,7,5.1c-0.1,0-0.2,0-0.3,0c-0.9,0-1.5,0-2.3,0.4C4,5.7,3.6,5.8,3.3,5.8v0.3c0,0,0,0.1,0,0.1
		C3.1,6.4,3,6.7,3.1,7c0.1,0.1,0.2,0.2,0.3,0.2h0.7c0.1,0,0.2,0.1,0.2,0.2S4.2,7.5,4.1,7.5z"/>
	<path class="st5" d="M9.2,7.5h-3C6.1,7.5,6,7.4,6,7.3s0.1-0.2,0.2-0.2h3c0.1,0,0.2,0.1,0.2,0.2S9.4,7.5,9.2,7.5z"/>
</g>
<g id="Ebene_6" class="st0">
	<g class="st1">
		<path class="st5" d="M11.6,11.3c-0.1,0-0.1,0.1-0.1,0.1c0,0,0,0,0,0v0.1H8.8v-0.1c0-0.1-0.1-0.1-0.1-0.1c-0.1,0-0.1,0.1-0.1,0.1
			v0.1H6v-0.1c0-0.1-0.1-0.1-0.1-0.1c-0.1,0-0.1,0.1-0.1,0.1v0.6c0,0.1,0.1,0.1,0.1,0.1c0.1,0,0.1-0.1,0.1-0.1v-0.1h2.6v0.1
			c0,0.1,0.1,0.1,0.1,0.1c0.1,0,0.1-0.1,0.1-0.1v-0.1h2.6v0.1c0,0.1,0.1,0.1,0.1,0.1c0.1,0,0.1-0.1,0.1-0.1v-0.6
			C11.7,11.4,11.6,11.3,11.6,11.3z"/>
		<path class="st5" d="M13.9,4c-0.4,0-0.8,0.2-1.1,0.5c-0.3,0.3-0.5,0.7-0.5,1.1v1.2h-0.7V6l0,0c0,0,0-0.1,0-0.1l0,0c0,0,0,0,0,0
			l0,0c0,0,0,0,0,0L8.8,4.2c0,0-0.1,0-0.2,0L5.8,5.9c0,0,0,0,0,0l0,0c0,0,0,0,0,0l0,0c0,0,0,0.1,0,0.1l0,0v0.7H5.1V5.5
			c0-0.4-0.2-0.8-0.5-1.1C4.3,4.1,4,4,3.5,4C2.7,4,2,4.7,2,5.5v6.3c0,0.9,0.7,1.5,1.5,1.5h10.3c0.9,0,1.5-0.7,1.5-1.5V5.5
			C15.4,4.7,14.7,4,13.9,4z M8.7,4.5L11.2,6L8.7,7.6L6.2,6L8.7,4.5z M11.4,6.3v2.8l-2.5,1.6V7.9L11.4,6.3z M6,6.3l2.5,1.6v2.8L6,9.1
			L6,6.3z M2.3,5.5c0-0.7,0.6-1.3,1.3-1.3c0.3,0,0.7,0.1,0.9,0.4l0,0c0.2,0.2,0.4,0.6,0.4,0.9v5.4c-0.5-0.7-1.5-0.9-2.1-0.4
			c-0.1,0.1-0.3,0.2-0.4,0.4L2.3,5.5z M13.9,13H3.5c-0.7,0-1.3-0.6-1.3-1.3c0-0.7,0.6-1.3,1.3-1.3c0.7,0,1.3,0.6,1.3,1.3
			c0,0,0,0,0,0c0,0.1,0.1,0.1,0.1,0.1c0.1,0,0.1-0.1,0.1-0.1V7h0.7v2.1c0,0,0,0,0,0l0,0l0,0l0,0c0,0,0,0.1,0.1,0.1l0,0L8.6,11
			c0,0,0,0,0.1,0l0,0c0,0,0.1,0,0.1,0l2.8-1.7h0c0,0,0,0,0.1-0.1l0,0l0,0l0,0c0,0,0,0,0,0V7h0.7v4.8c0,0.1,0.1,0.1,0.1,0.1
			c0.1,0,0.1-0.1,0.1-0.1c0-0.7,0.6-1.3,1.3-1.3c0.7,0,1.3,0.6,1.3,1.3S14.5,13,13.9,13C13.8,13,13.8,13,13.9,13L13.9,13z
			 M15.1,10.9c-0.5-0.7-1.5-0.9-2.1-0.4c-0.1,0.1-0.3,0.2-0.4,0.4V5.5c0-0.3,0.1-0.7,0.4-0.9c0.2-0.2,0.6-0.4,0.9-0.4
			c0.7,0,1.3,0.6,1.3,1.3V10.9z"/>
		<path class="st6" d="M12.5,13.9H6.4c0,0,0,0,0,0c0,0,0,0,0,0l-1.9,0.8c-0.1,0-0.1,0.1-0.1,0.2c0,0,0,0.1,0.1,0.1l1.9,0.8
			c0,0,0,0,0,0c0,0,0,0,0,0h6.1c0.4,0,0.7-0.3,0.7-0.7v-0.5C13.1,14.2,12.8,13.9,12.5,13.9z M6.2,15.4l-1.4-0.6l1.4-0.6V15.4z
			 M11.6,15.5H6.5V15h5.1V15.5z M11.6,14.7H6.5v-0.5h5.1V14.7z M12.8,15.1c0,0.2-0.2,0.4-0.4,0.4c0,0,0,0,0,0h-0.6v-1.2h0.6
			c0.2,0,0.4,0.2,0.4,0.4V15.1z"/>
	</g>
</g>
</svg>
